<?xml version="1.0" encoding="UTF-8" standalone="no" ?>
<!DOCTYPE svg PUBLIC "-//W3C//DTD SVG 1.1//EN" "http://www.w3.org/Graphics/SVG/1.1/DTD/svg11.dtd">
<svg xmlns="http://www.w3.org/2000/svg" xmlns:xlink="http://www.w3.org/1999/xlink" version="1.1" width="1280" height="1024" viewBox="0 0 1280 1024" xml:space="preserve">
<desc>Created with Fabric.js 3.6.3</desc>
<defs>
</defs>
<g transform="matrix(1.9692780337941629 0 0 1.9692780337941629 906.9350710523522 461.0079321783794)" id="text-logo-path"  >
<path style="stroke: none; stroke-width: 0; stroke-dasharray: none; stroke-linecap: butt; stroke-dashoffset: 0; stroke-linejoin: miter; stroke-miterlimit: 4; fill: rgb(154,48,121); fill-rule: nonzero; opacity: 1;"  paint-order="stroke"  transform=" translate(-91.885, 18.865)" d="M 16.65 -31.32 L 0.98 -31.32 L 0.98 -35.29 L 36.27 -35.29 L 36.27 -31.32 L 20.62 -31.32 L 20.62 0 L 16.65 0 L 16.65 -31.32 Z M 43.74 0 L 39.72 0 L 39.72 -28.42 L 43.74 -28.42 L 43.74 0 Z M 43.74 -33.71 L 39.72 -33.71 L 39.72 -37.73 L 43.74 -37.73 L 43.74 -33.71 Z M 48.47 -5.93 L 48.47 -5.93 L 48.47 -22.49 Q 48.47 -24.93 50.22 -26.68 Q 51.97 -28.42 54.46 -28.42 L 54.46 -28.42 L 73.43 -28.42 L 73.43 -37.73 L 77.42 -37.73 L 77.42 0 L 54.46 0 Q 51.97 0 50.22 -1.73 Q 48.47 -3.47 48.47 -5.93 Z M 52.54 -22.49 L 52.54 -5.93 Q 52.54 -5.14 53.1 -4.58 Q 53.67 -4.02 54.46 -4.02 L 54.46 -4.02 L 71.51 -4.02 Q 72.3 -4.02 72.87 -4.58 Q 73.43 -5.14 73.43 -5.93 L 73.43 -5.93 L 73.43 -22.49 Q 73.43 -23.28 72.85 -23.84 Q 72.28 -24.4 71.51 -24.4 L 71.51 -24.4 L 54.46 -24.4 Q 53.67 -24.4 53.1 -23.84 Q 52.54 -23.28 52.54 -22.49 L 52.54 -22.49 Z M 81.54 -5.93 L 81.54 -5.93 L 81.54 -22.49 Q 81.54 -24.93 83.29 -26.68 Q 85.03 -28.42 87.47 -28.42 L 87.47 -28.42 L 104.53 -28.42 Q 107.02 -28.42 108.77 -26.68 Q 110.51 -24.93 110.51 -22.49 L 110.51 -22.49 L 110.51 -12.2 L 85.56 -12.2 L 85.56 -5.93 Q 85.56 -5.14 86.12 -4.58 Q 86.68 -4.02 87.47 -4.02 L 87.47 -4.02 L 110.51 -4.02 L 110.51 0 L 87.47 0 Q 85.03 0 83.29 -1.73 Q 81.54 -3.47 81.54 -5.93 Z M 85.56 -22.49 L 85.56 -16.22 L 106.45 -16.22 L 106.45 -22.49 Q 106.45 -23.28 105.88 -23.84 Q 105.32 -24.4 104.53 -24.4 L 104.53 -24.4 L 87.47 -24.4 Q 86.68 -24.4 86.12 -23.84 Q 85.56 -23.28 85.56 -22.49 L 85.56 -22.49 Z M 145.25 0 L 115.85 0 L 115.85 -35.29 L 143.72 -35.29 Q 146.16 -35.29 147.89 -33.57 Q 149.61 -31.85 149.61 -29.4 L 149.61 -29.4 L 149.61 -21.89 Q 149.61 -20.58 148.96 -19.31 L 148.96 -19.31 L 149.15 -18.47 Q 151.12 -16.65 151.12 -14.12 L 151.12 -14.12 L 151.12 -5.89 Q 151.12 -3.45 149.4 -1.72 Q 147.69 0 145.25 0 L 145.25 0 Z M 119.82 -14.12 L 119.82 -5.89 Q 119.82 -5.1 120.38 -4.53 Q 120.94 -3.97 121.73 -3.97 L 121.73 -3.97 L 145.25 -3.97 Q 146.04 -3.97 146.61 -4.53 Q 147.17 -5.1 147.17 -5.89 L 147.17 -5.89 L 147.17 -14.12 Q 147.17 -14.91 146.59 -15.47 Q 146.02 -16.03 145.25 -16.03 L 145.25 -16.03 L 121.73 -16.03 Q 120.94 -16.03 120.38 -15.47 Q 119.82 -14.91 119.82 -14.12 L 119.82 -14.12 Z M 119.82 -29.4 L 119.82 -21.89 Q 119.82 -21.1 120.38 -20.55 Q 120.94 -20 121.73 -20 L 121.73 -20 L 143.72 -20 Q 144.51 -20 145.05 -20.56 Q 145.59 -21.13 145.59 -21.89 L 145.59 -21.89 L 145.59 -29.4 Q 145.59 -30.19 145.05 -30.76 Q 144.51 -31.32 143.72 -31.32 L 143.72 -31.32 L 121.73 -31.32 Q 120.94 -31.32 120.38 -30.76 Q 119.82 -30.19 119.82 -29.4 L 119.82 -29.4 Z M 160.25 0 L 156.24 0 L 156.24 -28.42 L 160.25 -28.42 L 160.25 0 Z M 160.25 -33.71 L 156.24 -33.71 L 156.24 -37.73 L 160.25 -37.73 L 160.25 -33.71 Z M 166.48 -5.93 L 166.48 -5.93 L 166.48 -37.73 L 170.47 -37.73 L 170.47 -28.42 L 182.79 -28.42 L 182.79 -24.4 L 170.47 -24.4 L 170.47 -5.93 Q 170.47 -5.14 171.05 -4.58 Q 171.62 -4.02 172.39 -4.02 L 172.39 -4.02 L 182.79 -4.02 L 182.79 0 L 172.39 0 Q 169.9 0 168.19 -1.73 Q 166.48 -3.47 166.48 -5.93 Z" stroke-linecap="round" />
</g>
<g transform="matrix(1.9692780337941629 0 0 1.9692780337941629 907.6995124766033 573.5629235338829)" id="tagline-12769d19-f783-4b61-b4fd-cb8262759552-logo-path"  >
<path style="stroke: none; stroke-width: 0; stroke-dasharray: none; stroke-linecap: butt; stroke-dashoffset: 0; stroke-linejoin: miter; stroke-miterlimit: 4; fill: rgb(154,48,121); fill-rule: nonzero; opacity: 1;"  paint-order="stroke"  transform=" translate(-159.725, 10.89)" d="M 2.11 -1.85 L 2.11 -1.85 L 2.11 -18.45 Q 2.11 -18.83 2.25 -19.17 Q 2.39 -19.51 2.64 -19.77 Q 2.89 -20.02 3.23 -20.16 Q 3.57 -20.31 3.96 -20.31 L 3.96 -20.31 L 16.28 -20.31 Q 16.96 -20.31 17.74 -20.06 Q 18.52 -19.82 19.19 -19.29 Q 19.87 -18.76 20.31 -17.91 Q 20.76 -17.06 20.76 -15.83 L 20.76 -15.83 L 20.76 -15.14 Q 20.76 -14.16 20.43 -13.03 Q 20.11 -11.91 19.39 -10.9 L 19.39 -10.9 Q 20.01 -10.52 20.55 -9.98 Q 21.1 -9.44 21.51 -8.74 Q 21.92 -8.03 22.16 -7.14 Q 22.4 -6.24 22.4 -5.17 L 22.4 -5.17 L 22.4 -4.46 Q 22.4 -3.78 22.17 -3 Q 21.93 -2.22 21.4 -1.56 Q 20.87 -0.89 20.02 -0.45 Q 19.17 0 17.94 0 L 17.94 0 L 3.96 0 Q 3.57 0 3.23 -0.14 Q 2.89 -0.28 2.64 -0.53 Q 2.39 -0.78 2.25 -1.12 Q 2.11 -1.46 2.11 -1.85 Z M 5.79 -16.62 L 5.79 -3.68 L 17.94 -3.68 Q 18.04 -3.68 18.18 -3.7 Q 18.32 -3.71 18.44 -3.78 Q 18.55 -3.85 18.63 -4.02 Q 18.72 -4.19 18.72 -4.49 L 18.72 -4.49 L 18.72 -5.17 Q 18.72 -5.89 18.49 -6.46 Q 18.27 -7.04 17.86 -7.45 Q 17.45 -7.86 16.86 -8.08 Q 16.28 -8.3 15.56 -8.3 L 15.56 -8.3 L 7.26 -8.3 L 7.26 -12.01 L 13.91 -12.01 Q 14.63 -12.01 15.21 -12.23 Q 15.79 -12.45 16.2 -12.86 Q 16.61 -13.27 16.83 -13.84 Q 17.05 -14.42 17.05 -15.14 L 17.05 -15.14 L 17.05 -15.83 Q 17.05 -16.62 16.28 -16.62 L 16.28 -16.62 L 5.79 -16.62 Z M 25.11 -5.17 L 25.11 -5.17 L 25.11 -21.78 L 28.79 -21.78 L 28.79 -5.17 Q 28.79 -4.49 29.21 -4.09 Q 29.64 -3.68 30.27 -3.68 L 30.27 -3.68 L 31.92 -3.68 L 31.92 0 L 30.27 0 Q 29.48 0 28.58 -0.27 Q 27.68 -0.54 26.9 -1.15 Q 26.13 -1.77 25.62 -2.75 Q 25.11 -3.74 25.11 -5.17 Z M 33.97 -5.17 L 33.97 -5.17 L 33.97 -10.15 Q 33.97 -11.57 34.49 -12.55 Q 35 -13.54 35.78 -14.15 Q 36.55 -14.77 37.45 -15.04 Q 38.36 -15.31 39.12 -15.31 L 39.12 -15.31 L 45.77 -15.31 Q 47.18 -15.31 48.17 -14.8 Q 49.16 -14.29 49.77 -13.52 Q 50.38 -12.74 50.66 -11.84 Q 50.93 -10.93 50.93 -10.15 L 50.93 -10.15 L 50.93 -5.17 Q 50.93 -4.22 50.69 -3.46 Q 50.45 -2.7 50.06 -2.13 Q 49.66 -1.56 49.14 -1.15 Q 48.61 -0.75 48.04 -0.5 Q 47.46 -0.24 46.88 -0.12 Q 46.29 0 45.77 0 L 45.77 0 L 39.12 0 Q 38.36 0 37.45 -0.27 Q 36.55 -0.54 35.78 -1.15 Q 35 -1.77 34.49 -2.75 Q 33.97 -3.74 33.97 -5.17 Z M 37.65 -10.15 L 37.65 -5.17 Q 37.65 -4.45 38.03 -4.06 Q 38.42 -3.68 39.15 -3.68 L 39.15 -3.68 L 45.77 -3.68 Q 46.52 -3.68 46.88 -4.06 Q 47.25 -4.45 47.25 -5.17 L 47.25 -5.17 L 47.25 -10.12 Q 47.25 -10.89 46.87 -11.26 Q 46.49 -11.63 45.77 -11.63 L 45.77 -11.63 L 39.15 -11.63 Q 38.42 -11.63 38.03 -11.25 Q 37.65 -10.88 37.65 -10.15 L 37.65 -10.15 Z M 53.75 -5.17 L 53.75 -5.17 L 53.75 -10.15 Q 53.75 -10.68 53.87 -11.26 Q 53.99 -11.84 54.25 -12.41 Q 54.5 -12.98 54.91 -13.51 Q 55.31 -14.03 55.88 -14.43 Q 56.46 -14.83 57.21 -15.07 Q 57.96 -15.31 58.91 -15.31 L 58.91 -15.31 L 68.89 -15.31 L 68.89 -11.63 L 58.91 -11.63 Q 58.18 -11.63 57.81 -11.26 Q 57.43 -10.89 57.43 -10.12 L 57.43 -10.12 L 57.43 -5.17 Q 57.43 -4.45 57.82 -4.06 Q 58.2 -3.68 58.93 -3.68 L 58.93 -3.68 L 68.89 -3.68 L 68.89 0 L 58.91 0 Q 58.14 0 57.24 -0.27 Q 56.33 -0.54 55.56 -1.15 Q 54.79 -1.77 54.27 -2.75 Q 53.75 -3.74 53.75 -5.17 Z M 75.67 0 L 71.99 0 L 71.99 -21.78 L 75.67 -21.78 L 75.67 0 Z M 76.61 -8.58 L 76.61 -8.58 Q 76.63 -8.98 76.81 -9.32 Q 76.99 -9.67 77.3 -9.91 L 77.3 -9.91 L 84.03 -15.34 L 89.92 -15.34 L 81.25 -8.35 L 89.92 0 L 84.61 0 L 77.19 -7.17 Q 76.61 -7.69 76.61 -8.47 L 76.61 -8.47 Q 76.61 -8.52 76.61 -8.58 Z M 91.18 -5.17 L 91.18 -5.17 L 91.18 -10.15 Q 91.18 -10.68 91.3 -11.26 Q 91.42 -11.84 91.67 -12.41 Q 91.93 -12.98 92.33 -13.51 Q 92.73 -14.03 93.31 -14.43 Q 93.88 -14.83 94.63 -15.07 Q 95.38 -15.31 96.33 -15.31 L 96.33 -15.31 L 106.31 -15.31 L 106.31 -11.63 L 96.33 -11.63 Q 95.61 -11.63 95.23 -11.26 Q 94.86 -10.89 94.86 -10.12 L 94.86 -10.12 L 94.86 -5.17 Q 94.86 -4.45 95.24 -4.06 Q 95.62 -3.68 96.36 -3.68 L 96.36 -3.68 L 106.31 -3.68 L 106.31 0 L 96.33 0 Q 95.57 0 94.66 -0.27 Q 93.75 -0.54 92.98 -1.15 Q 92.21 -1.77 91.69 -2.75 Q 91.18 -3.74 91.18 -5.17 Z M 113.1 0 L 109.42 0 L 109.42 -21.78 L 113.1 -21.78 L 113.1 0 Z M 121.23 -11.63 L 114.58 -11.63 L 114.58 -15.31 L 121.23 -15.31 Q 121.75 -15.31 122.33 -15.19 Q 122.91 -15.07 123.48 -14.81 Q 124.06 -14.56 124.58 -14.15 Q 125.1 -13.75 125.5 -13.18 Q 125.9 -12.6 126.14 -11.85 Q 126.38 -11.1 126.38 -10.15 L 126.38 -10.15 L 126.38 0 L 122.7 0 L 122.7 -10.15 Q 122.7 -10.88 122.33 -11.25 Q 121.96 -11.63 121.23 -11.63 L 121.23 -11.63 Z M 128.77 -5.07 L 128.77 -5.07 Q 128.77 -5.83 129.04 -6.73 Q 129.31 -7.62 129.91 -8.38 Q 130.51 -9.13 131.48 -9.64 Q 132.45 -10.15 133.84 -10.15 L 133.84 -10.15 L 140.48 -10.15 L 140.48 -6.64 L 133.84 -6.64 Q 133.09 -6.64 132.68 -6.18 Q 132.27 -5.72 132.27 -5.04 L 132.27 -5.04 Q 132.27 -4.32 132.74 -3.92 Q 133.22 -3.51 133.87 -3.51 L 133.87 -3.51 L 140.48 -3.51 Q 141.23 -3.51 141.64 -3.96 Q 142.05 -4.42 142.05 -5.1 L 142.05 -5.1 L 142.05 -10.24 Q 142.05 -10.96 141.61 -11.38 Q 141.16 -11.81 140.48 -11.81 L 140.48 -11.81 L 132.4 -11.81 L 132.4 -15.31 L 140.48 -15.31 Q 141.25 -15.31 142.13 -15.04 Q 143.02 -14.77 143.78 -14.17 Q 144.53 -13.57 145.04 -12.6 Q 145.55 -11.63 145.55 -10.24 L 145.55 -10.24 L 145.55 -5.07 Q 145.55 -4.3 145.28 -3.42 Q 145.01 -2.53 144.41 -1.78 Q 143.81 -1.02 142.84 -0.51 Q 141.87 0 140.48 0 L 140.48 0 L 133.84 0 Q 133.08 0 132.19 -0.27 Q 131.31 -0.54 130.55 -1.14 Q 129.79 -1.74 129.28 -2.71 Q 128.77 -3.68 128.77 -5.07 Z M 152.43 0 L 148.75 0 L 148.75 -15.31 L 152.43 -15.31 L 152.43 0 Z M 152.43 -18.45 L 148.75 -18.45 L 148.75 -21.78 L 152.43 -21.78 L 152.43 -18.45 Z M 159.64 0 L 155.96 0 L 155.96 -13.48 Q 155.96 -13.86 156.1 -14.2 Q 156.24 -14.53 156.5 -14.78 Q 156.75 -15.02 157.09 -15.17 Q 157.43 -15.31 157.81 -15.31 L 157.81 -15.31 L 166.11 -15.31 Q 166.81 -15.31 167.58 -15.15 Q 168.35 -15 169.11 -14.65 Q 169.87 -14.3 170.55 -13.77 Q 171.24 -13.24 171.77 -12.48 Q 172.3 -11.72 172.61 -10.73 Q 172.92 -9.74 172.92 -8.5 L 172.92 -8.5 L 172.92 0 L 169.24 0 L 169.24 -8.5 Q 169.24 -9.22 168.99 -9.79 Q 168.75 -10.37 168.32 -10.78 Q 167.9 -11.19 167.32 -11.41 Q 166.75 -11.63 166.08 -11.63 L 166.08 -11.63 L 159.64 -11.63 L 159.64 0 Z M 185.21 -14.3 L 185.21 -14.3 Q 185.21 -15.96 185.8 -17.1 Q 186.39 -18.24 187.28 -18.95 Q 188.16 -19.67 189.19 -19.99 Q 190.23 -20.31 191.12 -20.31 L 191.12 -20.31 L 203.65 -20.31 L 203.65 -16.62 L 191.12 -16.62 Q 190.07 -16.62 189.48 -15.99 Q 188.9 -15.35 188.9 -14.3 L 188.9 -14.3 Q 188.9 -13.24 189.48 -12.62 Q 190.07 -12.01 191.12 -12.01 L 191.12 -12.01 L 199.59 -12.01 L 199.62 -12.01 Q 200.21 -11.99 200.88 -11.84 Q 201.54 -11.7 202.2 -11.38 Q 202.86 -11.07 203.45 -10.6 Q 204.05 -10.12 204.51 -9.46 Q 204.97 -8.79 205.24 -7.93 Q 205.51 -7.07 205.51 -5.98 L 205.51 -5.98 Q 205.51 -4.89 205.23 -4.01 Q 204.95 -3.14 204.5 -2.48 Q 204.05 -1.81 203.44 -1.35 Q 202.83 -0.88 202.18 -0.58 Q 201.53 -0.28 200.85 -0.14 Q 200.18 0 199.59 0 L 199.59 0 L 185.38 0 L 185.38 -3.68 L 199.59 -3.68 Q 200.65 -3.68 201.24 -4.3 Q 201.82 -4.93 201.82 -5.98 L 201.82 -5.98 Q 201.82 -6.49 201.67 -6.91 Q 201.51 -7.33 201.22 -7.65 Q 200.93 -7.96 200.51 -8.13 Q 200.1 -8.3 199.59 -8.3 L 199.59 -8.3 L 191.12 -8.3 Q 190.23 -8.3 189.19 -8.62 Q 188.16 -8.94 187.28 -9.64 Q 186.39 -10.35 185.8 -11.5 Q 185.21 -12.65 185.21 -14.3 Z M 207.84 -5.17 L 207.84 -5.17 L 207.84 -10.15 Q 207.84 -11.57 208.36 -12.55 Q 208.88 -13.54 209.65 -14.15 Q 210.42 -14.77 211.33 -15.04 Q 212.23 -15.31 213 -15.31 L 213 -15.31 L 219.64 -15.31 Q 221.05 -15.31 222.05 -14.8 Q 223.04 -14.29 223.65 -13.52 Q 224.25 -12.74 224.53 -11.84 Q 224.81 -10.93 224.81 -10.15 L 224.81 -10.15 L 224.81 -5.17 Q 224.81 -4.22 224.57 -3.46 Q 224.33 -2.7 223.93 -2.13 Q 223.53 -1.56 223.01 -1.15 Q 222.48 -0.75 221.91 -0.5 Q 221.34 -0.24 220.75 -0.12 Q 220.16 0 219.64 0 L 219.64 0 L 213 0 Q 212.23 0 211.33 -0.27 Q 210.42 -0.54 209.65 -1.15 Q 208.88 -1.77 208.36 -2.75 Q 207.84 -3.74 207.84 -5.17 Z M 211.52 -10.15 L 211.52 -5.17 Q 211.52 -4.45 211.91 -4.06 Q 212.29 -3.68 213.03 -3.68 L 213.03 -3.68 L 219.64 -3.68 Q 220.39 -3.68 220.76 -4.06 Q 221.13 -4.45 221.13 -5.17 L 221.13 -5.17 L 221.13 -10.12 Q 221.13 -10.89 220.74 -11.26 Q 220.36 -11.63 219.64 -11.63 L 219.64 -11.63 L 213.03 -11.63 Q 212.29 -11.63 211.91 -11.25 Q 211.52 -10.88 211.52 -10.15 L 211.52 -10.15 Z M 227.85 -5.17 L 227.85 -5.17 L 227.85 -21.78 L 231.53 -21.78 L 231.53 -5.17 Q 231.53 -4.49 231.96 -4.09 Q 232.38 -3.68 233.02 -3.68 L 233.02 -3.68 L 234.66 -3.68 L 234.66 0 L 233.02 0 Q 232.23 0 231.33 -0.27 Q 230.43 -0.54 229.65 -1.15 Q 228.87 -1.77 228.36 -2.75 Q 227.85 -3.74 227.85 -5.17 Z M 236.57 -6.81 L 236.57 -6.81 L 236.57 -15.31 L 240.26 -15.31 L 240.26 -6.81 Q 240.26 -6.09 240.5 -5.52 Q 240.75 -4.94 241.18 -4.53 Q 241.6 -4.12 242.17 -3.9 Q 242.75 -3.68 243.41 -3.68 L 243.41 -3.68 L 249.86 -3.68 L 249.86 -15.31 L 253.54 -15.31 L 253.54 -1.85 Q 253.54 -1.46 253.4 -1.12 Q 253.25 -0.78 253.01 -0.53 Q 252.76 -0.28 252.43 -0.14 Q 252.09 0 251.71 0 L 251.71 0 L 243.38 0 Q 242.71 0 241.93 -0.16 Q 241.16 -0.31 240.41 -0.66 Q 239.66 -1.01 238.96 -1.54 Q 238.26 -2.07 237.73 -2.82 Q 237.21 -3.58 236.89 -4.57 Q 236.57 -5.56 236.57 -6.81 Z M 260.76 -11.63 L 255.97 -11.63 L 255.97 -15.31 L 260.76 -15.31 L 260.76 -20.31 L 264.48 -20.31 L 264.48 -15.31 L 270.91 -15.31 L 270.91 -11.63 L 264.48 -11.63 L 264.48 0 L 260.76 0 L 260.76 -11.63 Z M 277.07 0 L 273.39 0 L 273.39 -15.31 L 277.07 -15.31 L 277.07 0 Z M 277.07 -18.45 L 273.39 -18.45 L 273.39 -21.78 L 277.07 -21.78 L 277.07 -18.45 Z M 280.29 -5.17 L 280.29 -5.17 L 280.29 -10.15 Q 280.29 -11.57 280.8 -12.55 Q 281.32 -13.54 282.09 -14.15 Q 282.86 -14.77 283.77 -15.04 Q 284.68 -15.31 285.44 -15.31 L 285.44 -15.31 L 292.08 -15.31 Q 293.5 -15.31 294.49 -14.8 Q 295.48 -14.29 296.09 -13.52 Q 296.7 -12.74 296.97 -11.84 Q 297.25 -10.93 297.25 -10.15 L 297.25 -10.15 L 297.25 -5.17 Q 297.25 -4.22 297.01 -3.46 Q 296.77 -2.7 296.37 -2.13 Q 295.98 -1.56 295.45 -1.15 Q 294.93 -0.75 294.35 -0.5 Q 293.78 -0.24 293.19 -0.12 Q 292.61 0 292.08 0 L 292.08 0 L 285.44 0 Q 284.68 0 283.77 -0.27 Q 282.86 -0.54 282.09 -1.15 Q 281.32 -1.77 280.8 -2.75 Q 280.29 -3.74 280.29 -5.17 Z M 283.97 -10.15 L 283.97 -5.17 Q 283.97 -4.45 284.35 -4.06 Q 284.73 -3.68 285.47 -3.68 L 285.47 -3.68 L 292.08 -3.68 Q 292.83 -3.68 293.2 -4.06 Q 293.57 -4.45 293.57 -5.17 L 293.57 -5.17 L 293.57 -10.12 Q 293.57 -10.89 293.19 -11.26 Q 292.8 -11.63 292.08 -11.63 L 292.08 -11.63 L 285.47 -11.63 Q 284.73 -11.63 284.35 -11.25 Q 283.97 -10.88 283.97 -10.15 L 283.97 -10.15 Z M 304.06 0 L 300.38 0 L 300.38 -13.48 Q 300.38 -13.86 300.52 -14.2 Q 300.66 -14.53 300.92 -14.78 Q 301.17 -15.02 301.51 -15.17 Q 301.85 -15.31 302.23 -15.31 L 302.23 -15.31 L 310.53 -15.31 Q 311.23 -15.31 312 -15.15 Q 312.77 -15 313.53 -14.65 Q 314.28 -14.3 314.97 -13.77 Q 315.66 -13.24 316.19 -12.48 Q 316.72 -11.72 317.03 -10.73 Q 317.34 -9.74 317.34 -8.5 L 317.34 -8.5 L 317.34 0 L 313.66 0 L 313.66 -8.5 Q 313.66 -9.22 313.41 -9.79 Q 313.17 -10.37 312.74 -10.78 Q 312.32 -11.19 311.74 -11.41 Q 311.17 -11.63 310.5 -11.63 L 310.5 -11.63 L 304.06 -11.63 L 304.06 0 Z" stroke-linecap="round" />
</g>
<g transform="matrix(1.2111981719277733 0 0 1.2111981719277733 357.733201364925 512.012312418764)" id="logo-logo"  >
<g style=""  paint-order="stroke"   >
		<g transform="matrix(2.09196181671804 0 0 -2.09196181671804 150.65707809594414 34.33383042534541)"  >
<linearGradient id="SVGID_31_353361" gradientUnits="userSpaceOnUse" gradientTransform="matrix(-31.601276 -22.011923 -22.011923 31.601276 263.04922 137.05658)"  x1="0" y1="0" x2="1" y2="0">
<stop offset="0%" style="stop-color:rgb(100,49,116);stop-opacity: 1"/>
<stop offset="100%" style="stop-color:rgb(109,52,131);stop-opacity: 1"/>
</linearGradient>
<path style="stroke: none; stroke-width: 1; stroke-dasharray: none; stroke-linecap: butt; stroke-dashoffset: 0; stroke-linejoin: miter; stroke-miterlimit: 4; fill: url(#SVGID_31_353361); fill-rule: nonzero; opacity: 1;"  paint-order="stroke"  transform=" translate(-247.0171648078266, -123.5877356121108)" d="m 239.578 148.807 c -0.002 -0.003 -0.002 -0.004 -0.005 -0.006 v 0 c 0.611 -2.838 0.94 -5.78 0.94 -8.801 v 0 c 0 -10.006 -3.531 -19.186 -9.414 -26.365 v 0 c -0.025 -0.032 -0.051 -0.062 -0.076 -0.093 v 0 c -4.589 -5.57 -1.461 -14.057 5.698 -14.971 v 0 c 1.748 -0.224 3.552 -0.268 5.393 -0.114 v 0 c 11.91 0.997 21.638 10.476 22.905 22.36 v 0 c 1.617 15.171 -10.232 27.992 -25.074 27.992 v 0 c -0.122 0.001 -0.244 0 -0.367 -0.002" stroke-linecap="round" />
</g>
		<g transform="matrix(2.09196181671804 0 0 -2.09196181671804 57.84568189622246 -2.842171e-14)"  >
<linearGradient id="SVGID_32_353362" gradientUnits="userSpaceOnUse" gradientTransform="matrix(-50.080143 -25.2684 -25.2684 50.080143 241.41786 153.60538)"  x1="0" y1="0" x2="1" y2="0">
<stop offset="0%" style="stop-color:rgb(140,55,138);stop-opacity: 1"/>
<stop offset="100%" style="stop-color:rgb(109,52,131);stop-opacity: 1"/>
</linearGradient>
<path style="stroke: none; stroke-width: 1; stroke-dasharray: none; stroke-linecap: butt; stroke-dashoffset: 0; stroke-linejoin: miter; stroke-miterlimit: 4; fill: url(#SVGID_32_353362); fill-rule: nonzero; opacity: 1;"  paint-order="stroke"  transform=" translate(-202.65144290123453, -140)" d="m 164.802 163.907 c -0.03 -0.042 -0.001 -0.102 0.051 -0.104 v 0 c 17.126 -1.067 30.687 -15.29 30.687 -32.684 v 0 c 0 -4.026 -0.731 -7.882 -2.06 -11.445 v 0 c -0.813 -2.179 -1.85 -4.248 -3.086 -6.179 v 0 c -4.136 -6.468 0.195 -15.013 7.872 -15.125 v 0 c 0.205 -0.003 0.409 -0.004 0.613 -0.004 v 0 h 41.066 c -0.973 0 -1.934 0.055 -2.878 0.162 v 0 c -7.242 0.824 -10.596 9.475 -5.968 15.107 v 0 c 5.883 7.179 9.414 16.359 9.414 26.365 v 0 c 0 3.021 -0.329 5.963 -0.94 8.801 v 0 c -4.039 18.765 -20.72 32.833 -40.694 32.833 v 0 c -14.094 0 -26.544 -7.01 -34.077 -17.727" stroke-linecap="round" />
</g>
		<g transform="matrix(2.09196181671804 0 0 -2.09196181671804 -1.6516846846182034 18.57871289427277)"  >
<linearGradient id="SVGID_33_353363" gradientUnits="userSpaceOnUse" gradientTransform="matrix(-45.962544 -32.542824 -32.542824 45.962544 196.21201 145.29741)"  x1="0" y1="0" x2="1" y2="0">
<stop offset="0%" style="stop-color:rgb(161,49,125);stop-opacity: 1"/>
<stop offset="100%" style="stop-color:rgb(142,47,115);stop-opacity: 1"/>
</linearGradient>
<path style="stroke: none; stroke-width: 1; stroke-dasharray: none; stroke-linecap: butt; stroke-dashoffset: 0; stroke-linejoin: miter; stroke-miterlimit: 4; fill: url(#SVGID_33_353363); fill-rule: nonzero; opacity: 1;"  paint-order="stroke"  transform=" translate(-174.21049999999997, -131.11900000000006)" d="m 149.542 161.074 c 5.518 -1.35 9.944 -5.876 11.111 -11.454 v 0 c 0.371 -1.778 0.414 -3.569 0.166 -5.307 v 0 c 0.12 0.003 0.239 0.011 0.358 0.011 v 0 c 1.01 0 2.031 -0.102 3.034 -0.302 v 0 c 5.797 -1.157 10.503 -5.818 11.712 -11.599 v 0 c 0.944 -4.517 -0.165 -9.137 -3.042 -12.679 v 0 c -2.878 -3.541 -7.143 -5.572 -11.704 -5.572 v 0 c -0.194 0 -0.386 0.012 -0.578 0.019 v 0 c 0.028 -0.124 0.063 -0.246 0.088 -0.371 v 0 c 0.888 -4.491 -0.252 -9.073 -3.128 -12.574 v 0 c -0.619 -0.752 -1.311 -1.42 -2.044 -2.029 v 0 c 0.318 -0.096 0.643 -0.181 0.976 -0.247 v 0 c 2.038 -0.396 4.143 -0.604 6.296 -0.604 v 0 h 36.092 c -0.204 0 -0.408 0.001 -0.613 0.004 v 0 c -7.677 0.112 -12.008 8.657 -7.872 15.125 v 0 c 1.236 1.931 2.273 4 3.086 6.179 v 0 c 1.329 3.563 2.06 7.419 2.06 11.445 v 0 c 0 17.435 -13.624 31.683 -30.806 32.691 v 0 c -0.644 0.038 -1.293 0.062 -1.947 0.062 v 0 c -4.715 0 -9.194 -1.004 -13.245 -2.798" stroke-linecap="round" />
</g>
		<g transform="matrix(2.09196181671804 0 0 -2.09196181671804 -182.1281593594269 -13.481229535476103)"  >
<path style="stroke: none; stroke-width: 1; stroke-dasharray: none; stroke-linecap: butt; stroke-dashoffset: 0; stroke-linejoin: miter; stroke-miterlimit: 4; fill: rgb(108,52,130); fill-rule: nonzero; opacity: 1;"  paint-order="stroke"  transform=" translate(3.106, 0)" d="m 0 0 c 0 -1.716 -1.391 -3.106 -3.106 -3.106 c -1.716 0 -3.106 1.39 -3.106 3.106 c 0 1.715 1.39 3.106 3.106 3.106 C -1.391 3.106 0 1.715 0 0" stroke-linecap="round" />
</g>
		<g transform="matrix(2.09196181671804 0 0 -2.09196181671804 -153.5373172103414 -13.481229535476103)"  >
<path style="stroke: none; stroke-width: 1; stroke-dasharray: none; stroke-linecap: butt; stroke-dashoffset: 0; stroke-linejoin: miter; stroke-miterlimit: 4; fill: rgb(108,52,130); fill-rule: nonzero; opacity: 1;"  paint-order="stroke"  transform=" translate(5.436, 0)" d="m 0 0 c 0 -3.002 -2.434 -5.436 -5.436 -5.436 c -3.002 0 -5.436 2.434 -5.436 5.436 c 0 3.002 2.434 5.436 5.436 5.436 C -2.434 5.436 0 3.002 0 0" stroke-linecap="round" />
</g>
		<g transform="matrix(2.09196181671804 0 0 -2.09196181671804 -87.2177504818747 -13.48098269646934)"  >
<path style="stroke: none; stroke-width: 1; stroke-dasharray: none; stroke-linecap: butt; stroke-dashoffset: 0; stroke-linejoin: miter; stroke-miterlimit: 4; fill: rgb(108,52,130); fill-rule: nonzero; opacity: 1;"  paint-order="stroke"  transform=" translate(14.26250763938907, 7.909817994030698)" d="m 0 0 c -3.647 0.728 -6.968 -1.003 -8.625 -3.83 c -0.503 -0.858 -1.257 -1.536 -2.21 -1.82 c -0.24 -0.072 -0.481 -0.144 -0.724 -0.217 c -1.455 -0.448 -2.958 -0.735 -4.486 -0.681 c -1.527 0.013 -3.079 0.305 -4.631 0.727 c -0.35 0.095 -0.7 0.189 -1.05 0.279 c -0.875 0.225 -1.599 0.788 -2.16 1.495 c -1.351 1.703 -3.564 2.685 -5.994 2.245 c -2.422 -0.439 -4.411 -2.355 -4.916 -4.763 c -0.843 -4.018 2.201 -7.557 6.071 -7.557 c 2.259 0 4.22 1.213 5.301 3.019 c 0.605 1.012 1.59 1.72 2.727 2.029 c 0.007 0.002 0.014 0.004 0.021 0.006 c 1.552 0.422 3.104 0.714 4.631 0.727 c 1.528 0.054 3.031 -0.233 4.486 -0.681 c 0.007 -0.002 0.014 -0.004 0.02 -0.006 c 1.074 -0.321 2.016 -1.049 2.459 -2.078 c 1.238 -2.87 4.092 -4.88 7.416 -4.88 c 5.03 0 8.985 4.598 7.894 9.819 C 5.587 -3.09 3.082 -0.615 0 0" stroke-linecap="round" />
</g>
		<g transform="matrix(2.09196181671804 0 0 -2.09196181671804 -181.05184500472544 22.49256425717067)"  >
<path style="stroke: none; stroke-width: 1; stroke-dasharray: none; stroke-linecap: butt; stroke-dashoffset: 0; stroke-linejoin: miter; stroke-miterlimit: 4; fill: rgb(138,55,138); fill-rule: nonzero; opacity: 1;"  paint-order="stroke"  transform=" translate(2.5915, 0)" d="m 0 0 c 0 -1.431 -1.16 -2.592 -2.592 -2.592 c -1.431 0 -2.591 1.161 -2.591 2.592 c 0 1.431 1.16 2.592 2.591 2.592 C -1.16 2.592 0 1.431 0 0" stroke-linecap="round" />
</g>
		<g transform="matrix(2.09196181671804 0 0 -2.09196181671804 -154.90587863083834 22.49256425717067)"  >
<path style="stroke: none; stroke-width: 1; stroke-dasharray: none; stroke-linecap: butt; stroke-dashoffset: 0; stroke-linejoin: miter; stroke-miterlimit: 4; fill: rgb(138,55,138); fill-rule: nonzero; opacity: 1;"  paint-order="stroke"  transform=" translate(3.953, 0)" d="m 0 0 c 0 -2.183 -1.77 -3.953 -3.953 -3.953 c -2.183 0 -3.953 1.77 -3.953 3.953 c 0 2.183 1.77 3.953 3.953 3.953 C -1.77 3.953 0 2.183 0 0" stroke-linecap="round" />
</g>
		<g transform="matrix(2.09196181671804 0 0 -2.09196181671804 -121.59264187669365 22.49256425717067)"  >
<path style="stroke: none; stroke-width: 1; stroke-dasharray: none; stroke-linecap: butt; stroke-dashoffset: 0; stroke-linejoin: miter; stroke-miterlimit: 4; fill: rgb(138,55,138); fill-rule: nonzero; opacity: 1;"  paint-order="stroke"  transform=" translate(5.436, 0)" d="m 0 0 c 0 -3.002 -2.434 -5.436 -5.436 -5.436 c -3.002 0 -5.436 2.434 -5.436 5.436 c 0 3.002 2.434 5.436 5.436 5.436 C -2.434 5.436 0 3.002 0 0" stroke-linecap="round" />
</g>
		<g transform="matrix(2.09196181671804 0 0 -2.09196181671804 -55.273075148226894 22.492811096177434)"  >
<path style="stroke: none; stroke-width: 1; stroke-dasharray: none; stroke-linecap: butt; stroke-dashoffset: 0; stroke-linejoin: miter; stroke-miterlimit: 4; fill: rgb(138,55,138); fill-rule: nonzero; opacity: 1;"  paint-order="stroke"  transform=" translate(14.26250763938907, 7.909817994030698)" d="m 0 0 c -3.647 0.728 -6.968 -1.003 -8.625 -3.83 c -0.503 -0.858 -1.257 -1.536 -2.21 -1.82 c -0.24 -0.071 -0.481 -0.144 -0.724 -0.217 c -1.455 -0.448 -2.958 -0.735 -4.486 -0.681 c -1.527 0.013 -3.079 0.305 -4.631 0.727 c -0.35 0.095 -0.7 0.189 -1.05 0.279 c -0.875 0.225 -1.599 0.788 -2.16 1.495 c -1.351 1.703 -3.564 2.685 -5.994 2.245 c -2.422 -0.439 -4.411 -2.355 -4.916 -4.763 c -0.843 -4.018 2.201 -7.557 6.071 -7.557 c 2.259 0 4.22 1.213 5.301 3.019 c 0.605 1.012 1.59 1.72 2.727 2.029 c 0.007 0.002 0.014 0.004 0.021 0.006 c 1.552 0.422 3.104 0.714 4.631 0.727 c 1.528 0.054 3.031 -0.233 4.486 -0.681 c 0.007 -0.002 0.014 -0.004 0.02 -0.006 c 1.074 -0.321 2.016 -1.049 2.459 -2.078 c 1.238 -2.87 4.092 -4.88 7.416 -4.88 c 5.03 0 8.985 4.598 7.894 9.819 C 5.587 -3.09 3.082 -0.615 0 0" stroke-linecap="round" />
</g>
		<g transform="matrix(2.09196181671804 0 0 -2.09196181671804 -182.1281593594269 61.05641597509606)"  >
<path style="stroke: none; stroke-width: 1; stroke-dasharray: none; stroke-linecap: butt; stroke-dashoffset: 0; stroke-linejoin: miter; stroke-miterlimit: 4; fill: rgb(159,49,124); fill-rule: nonzero; opacity: 1;"  paint-order="stroke"  transform=" translate(3.106, 0)" d="m 0 0 c 0 -1.716 -1.391 -3.106 -3.106 -3.106 c -1.716 0 -3.106 1.39 -3.106 3.106 c 0 1.715 1.39 3.106 3.106 3.106 C -1.391 3.106 0 1.715 0 0" stroke-linecap="round" />
</g>
		<g transform="matrix(2.09196181671804 0 0 -2.09196181671804 -153.5373172103414 61.05641597509606)"  >
<path style="stroke: none; stroke-width: 1; stroke-dasharray: none; stroke-linecap: butt; stroke-dashoffset: 0; stroke-linejoin: miter; stroke-miterlimit: 4; fill: rgb(159,49,124); fill-rule: nonzero; opacity: 1;"  paint-order="stroke"  transform=" translate(5.436, 0)" d="m 0 0 c 0 -3.002 -2.434 -5.436 -5.436 -5.436 c -3.002 0 -5.436 2.434 -5.436 5.436 c 0 3.002 2.434 5.436 5.436 5.436 C -2.434 5.436 0 3.002 0 0" stroke-linecap="round" />
</g>
		<g transform="matrix(2.09196181671804 0 0 -2.09196181671804 -87.21782711171639 61.05649490269457)"  >
<path style="stroke: none; stroke-width: 1; stroke-dasharray: none; stroke-linecap: butt; stroke-dashoffset: 0; stroke-linejoin: miter; stroke-miterlimit: 4; fill: rgb(159,49,124); fill-rule: nonzero; opacity: 1;"  paint-order="stroke"  transform=" translate(14.262244270001116, 7.909837728986233)" d="m 0 0 c -3.722 0.743 -7.105 -1.076 -8.725 -4.007 c -0.447 -0.808 -1.222 -1.378 -2.107 -1.642 c -0.24 -0.072 -0.483 -0.145 -0.727 -0.218 c -1.455 -0.448 -2.958 -0.735 -4.485 -0.681 c -1.528 0.013 -3.08 0.305 -4.631 0.727 c -0.296 0.081 -0.592 0.16 -0.888 0.237 c -0.874 0.227 -1.687 0.698 -2.231 1.418 c -1.392 1.843 -3.773 2.892 -6.37 2.306 c -2.297 -0.518 -4.139 -2.385 -4.628 -4.688 c -0.855 -4.025 2.192 -7.574 6.067 -7.574 c 2.221 0 4.153 1.172 5.244 2.927 c 0.624 1.003 1.547 1.785 2.687 2.094 l 0.119 0.033 c 1.551 0.422 3.103 0.714 4.631 0.727 c 1.527 0.054 3.03 -0.233 4.485 -0.681 l 0.021 -0.007 c 1.117 -0.333 2.033 -1.136 2.513 -2.199 c 1.265 -2.805 4.084 -4.758 7.362 -4.758 c 4.999 0 8.937 4.542 7.912 9.725 C 5.632 -3.137 3.122 -0.623 0 0" stroke-linecap="round" />
</g>
</g>
</g>
</svg>